<svg width="49" height="52" viewBox="0 0 49 52" fill="none" xmlns="http://www.w3.org/2000/svg">
<path d="M39.7815 28.0551H32.456L25.5754 10.2897L29.5627 0H19.4232L23.4104 10.2897L8.1303 49.7311H3.00104L15.538 17.3233H13.3701L0 51.8962H9.45937L24.4929 13.0839L30.291 28.0551H20.9676L20.7041 28.7352L20.1373 30.2144L17.6237 36.7323H29.2566L28.4291 34.5729L20.6672 34.6126L22.4781 30.2088H31.1411L39.5406 51.8905H49L39.7815 28.0551ZM22.427 2.15939H26.5588L24.4929 7.49552L22.427 2.15939ZM40.847 49.7311L33.292 30.2088H38.4496L45.999 49.7311H40.847Z" fill="white"/>
</svg>
