<svg width="116" height="116" viewBox="0 0 116 116" fill="none" xmlns="http://www.w3.org/2000/svg">
<path fill-rule="evenodd" clip-rule="evenodd" d="M72.5001 16.2302L59.1575 29.5728L43.5112 13.9265C43.8124 6.18421 50.184 0 58.0001 0C66.0082 0 72.5001 6.49187 72.5001 14.5V16.2302ZM99.0122 37.4939C104.675 31.8313 104.675 22.6504 99.0122 16.9878C93.3496 11.3252 84.1687 11.3252 78.5061 16.9878L49.1612 46.3328L46.3327 49.1612L16.9878 78.5062C11.3252 84.1688 11.3252 93.3497 16.9878 99.0123C22.6504 104.675 31.8313 104.675 37.4939 99.0123L66.8388 69.6673L69.6673 66.8389L99.0122 37.4939ZM70.7329 72.5H101.5C109.508 72.5 116 66.0081 116 58C116 49.9919 109.508 43.5 101.5 43.5H99.7329L70.7329 72.5ZM14.5 43.5H45.2302L16.2302 72.5H14.5C6.49187 72.5 0 66.0081 0 58C0 49.9919 6.49187 43.5 14.5 43.5ZM61.3631 81.8693L66.6604 76.572H97.0781L99.0119 78.5059C104.675 84.1685 104.675 93.3494 99.0119 99.012C93.3493 104.675 84.1684 104.675 78.5058 99.012L61.3631 81.8693ZM37.4938 16.9878L54.6181 34.1121L50.3969 38.3333H17.8271L16.9878 37.4939C11.3251 31.8313 11.3251 22.6504 16.9877 16.9878C22.6504 11.3252 31.8312 11.3252 37.4938 16.9878ZM43.5 99.7329L58.6628 84.5701L72.5 98.4073V101.5C72.5 109.508 66.0081 116 58 116C49.9919 116 43.5 109.508 43.5 101.5V99.7329Z" fill="#F75954"/>
</svg>
